<svg width="32" height="32" viewBox="0 0 32 32" fill="none" xmlns="http://www.w3.org/2000/svg">
<g id="Behance">
<path id="Vector" d="M26.7593 8.46666H19.9993V10.3467H26.786L26.7593 8.46666ZM25.3327 21.4C24.8199 21.7398 24.2143 21.9122 23.5994 21.8933C23.1923 21.9358 22.7809 21.8937 22.3909 21.7698C22.0009 21.6459 21.6406 21.4429 21.3327 21.1733C20.7634 20.5278 20.467 19.6865 20.506 18.8267H29.3327C29.3963 17.9314 29.3198 17.0317 29.106 16.16C28.8992 15.3307 28.5373 14.548 28.0394 13.8533C27.5382 13.1795 26.8909 12.6279 26.146 12.24C25.3173 11.8314 24.4032 11.6257 23.4794 11.64C22.6104 11.6336 21.749 11.8014 20.946 12.1333C20.2107 12.4433 19.5444 12.8966 18.986 13.4667C18.4292 14.0482 17.998 14.738 17.7193 15.4933C17.4203 16.3087 17.2712 17.1715 17.2793 18.04C17.2656 18.9208 17.4101 19.7969 17.706 20.6267C17.9573 21.378 18.3562 22.0716 18.8793 22.6667C19.4206 23.2509 20.0857 23.7065 20.826 24C21.6515 24.3145 22.5295 24.4684 23.4127 24.4533C24.6519 24.492 25.8754 24.1676 26.9327 23.52C28.0006 22.7612 28.7694 21.6527 29.106 20.3867H26.1594C26.0016 20.8055 25.7113 21.1613 25.3327 21.4ZM20.7593 15.9067C20.8631 15.5742 21.0354 15.2672 21.265 15.0054C21.4947 14.7436 21.7766 14.5329 22.0927 14.3867C22.5113 14.1982 22.9671 14.1071 23.426 14.12C23.7575 14.0917 24.0912 14.1354 24.4042 14.2482C24.7172 14.361 25.0021 14.5401 25.2394 14.7733C25.6924 15.3279 25.9831 15.9971 26.0793 16.7067H20.546C20.5676 16.4357 20.6167 16.1677 20.6927 15.9067H20.7593ZM13.706 15.2667C14.3846 14.9841 14.9743 14.5234 15.4127 13.9333C15.8156 13.3067 16.0158 12.5711 15.986 11.8267C16.0122 11.1478 15.8798 10.4721 15.5993 9.85333C15.3638 9.31722 14.9856 8.85603 14.506 8.52C13.9976 8.17063 13.4202 7.93422 12.8127 7.82666C12.0938 7.67588 11.3605 7.60434 10.626 7.61333H2.66602V24.3867H10.7993C11.5416 24.3872 12.2809 24.2931 12.9993 24.1067C13.6803 23.9305 14.3255 23.6372 14.906 23.24C15.4683 22.8503 15.9262 22.3283 16.2393 21.72C16.5859 21.0397 16.7556 20.2831 16.7327 19.52C16.7579 18.5743 16.4927 17.6436 15.9727 16.8533C15.4135 16.0586 14.584 15.4946 13.6393 15.2667H13.706ZM6.35935 10.48H9.81268C10.1299 10.4796 10.4467 10.5064 10.7593 10.56C11.0473 10.6027 11.3238 10.7024 11.5727 10.8533C11.8131 10.9894 12.008 11.1935 12.1327 11.44C12.2871 11.7356 12.3607 12.0668 12.346 12.4C12.3709 12.687 12.327 12.9758 12.218 13.2424C12.109 13.509 11.9381 13.7459 11.7193 13.9333C11.2422 14.2614 10.6712 14.4252 10.0927 14.4H6.35935V10.48ZM12.8127 20.4C12.6757 20.6717 12.4685 20.9019 12.2127 21.0667C11.9464 21.2323 11.653 21.3496 11.346 21.4133C11.0048 21.4897 10.6557 21.5255 10.306 21.52H6.30602V16.92H10.306C10.9924 16.8899 11.6703 17.0816 12.2393 17.4667C12.4964 17.6974 12.6956 17.9854 12.8207 18.3074C12.9457 18.6293 12.9933 18.9762 12.9593 19.32C12.9954 19.6865 12.9452 20.0564 12.8127 20.4Z" fill="black"/>
</g>
</svg>
