<svg width="32" height="32" viewBox="0 0 32 32" fill="none" xmlns="http://www.w3.org/2000/svg">
<g id="Linkedin" clip-path="url(#clip0_1719_2620)">
<path id="Vector" d="M0 4.26254C0 3.23292 0.360371 2.3835 1.08108 1.71428C1.80179 1.04503 2.73875 0.710419 3.89189 0.710419C5.02446 0.710419 5.94079 1.03987 6.64093 1.69884C7.36164 2.37837 7.72201 3.26381 7.72201 4.35521C7.72201 5.34362 7.37195 6.16728 6.67181 6.82625C5.9511 7.50579 5.00386 7.84555 3.83012 7.84555H3.79923C2.66666 7.84555 1.75033 7.50579 1.05019 6.82625C0.350054 6.14671 0 5.29213 0 4.26254ZM0.401544 31.2896V10.6564H7.25869V31.2896H0.401544ZM11.0579 31.2896H17.9151V19.7683C17.9151 19.0476 17.9974 18.4916 18.1622 18.1004C18.4504 17.4002 18.888 16.8082 19.4749 16.3243C20.0618 15.8404 20.7979 15.5984 21.6834 15.5984C23.9897 15.5984 25.1429 17.1531 25.1429 20.2625V31.2896H32V19.4595C32 16.4118 31.2793 14.1004 29.8378 12.5251C28.3964 10.9498 26.4916 10.1622 24.1236 10.1622C21.4672 10.1622 19.3977 11.305 17.9151 13.5907V13.6525H17.8842L17.9151 13.5907V10.6564H11.0579C11.0991 11.3153 11.1197 13.3642 11.1197 16.8031C11.1197 20.2419 11.0991 25.0708 11.0579 31.2896Z" fill="black"/>
</g>
<defs>
<clipPath id="clip0_1719_2620">
<rect width="32" height="30.5792" fill="white" transform="translate(0 0.710388)"/>
</clipPath>
</defs>
</svg>
