<svg width="32" height="32" viewBox="0 0 32 32" fill="none" xmlns="http://www.w3.org/2000/svg">
<g id="Website">
<path id="Vector" d="M28.6679 23.045C29.8699 20.8915 30.5009 18.4663 30.5009 16C30.5009 13.5338 29.8699 11.1085 28.6679 8.955C28.6616 8.88497 28.6402 8.81714 28.6052 8.75619C28.5701 8.69524 28.5223 8.64264 28.4649 8.602C26.8438 5.86939 24.3701 3.74486 21.424 2.55506C18.4779 1.36526 15.2226 1.17605 12.1585 2.01652C9.09442 2.85699 6.39121 4.68061 4.46447 7.20701C2.53773 9.73342 1.49414 12.8227 1.49414 16C1.49414 19.1773 2.53773 22.2666 4.46447 24.793C6.39121 27.3194 9.09442 29.143 12.1585 29.9835C15.2226 30.824 18.4779 30.6348 21.424 29.4449C24.3701 28.2551 26.8438 26.1306 28.4649 23.398C28.5223 23.3574 28.5701 23.3048 28.6052 23.2438C28.6402 23.1829 28.6616 23.115 28.6679 23.045ZM7.69089 23.5H9.98039C10.4598 25.3868 11.3361 27.1497 12.5509 28.671C10.4143 27.5183 8.70902 25.7039 7.69089 23.5ZM2.51339 16.5H5.01039C5.05599 18.5513 5.44889 20.58 6.17239 22.5H4.17239C3.15618 20.6579 2.58785 18.6025 2.51339 16.5ZM4.17339 9.5H6.17339C5.44989 11.42 5.05699 13.4487 5.01139 15.5H2.51339C2.58816 13.3974 3.15683 11.342 4.17339 9.5ZM24.3109 8.5H22.0214C21.542 6.61316 20.6657 4.85027 19.4509 3.329C21.5875 4.48171 23.2928 6.2961 24.3109 8.5ZM29.4884 15.5H26.9914C26.9458 13.4487 26.5529 11.42 25.8294 9.5H27.8294C28.8456 11.3421 29.4139 13.3975 29.4884 15.5ZM25.9914 15.5H22.9949C22.9733 13.4802 22.7341 11.4686 22.2814 9.5H24.7619C25.5289 11.4099 25.9454 13.4424 25.9914 15.5ZM15.5009 9.5V15.5H10.0069C10.0337 13.4776 10.2896 11.4647 10.7699 9.5H15.5009ZM11.0459 8.5C12.0459 5.207 13.6719 2.9115 15.5009 2.553V8.5H11.0459ZM15.5009 16.5V22.5H10.7699C10.2896 20.5353 10.0337 18.5224 10.0069 16.5H15.5009ZM15.5009 23.5V29.447C13.6719 29.0885 12.0464 26.793 11.0459 23.5H15.5009ZM16.5009 22.5V16.5H21.9949C21.9681 18.5224 21.7122 20.5353 21.2319 22.5H16.5009ZM20.9559 23.5C19.9559 26.793 18.3294 29.0885 16.5009 29.447V23.5H20.9559ZM16.5009 15.5V9.5H21.2319C21.7122 11.4647 21.9681 13.4776 21.9949 15.5H16.5009ZM16.5009 8.5V2.553C18.3294 2.9115 19.9549 5.207 20.9559 8.5H16.5009ZM12.5509 3.329C11.3361 4.85027 10.4598 6.61316 9.98039 8.5H7.69089C8.70902 6.2961 10.4143 4.48171 12.5509 3.329ZM9.71989 9.5C9.26739 11.4686 9.02835 13.4802 9.00689 15.5H6.01039C6.05624 13.4424 6.47256 11.4099 7.23939 9.5H9.71989ZM6.01039 16.5H9.00689C9.02835 18.5198 9.26739 20.5314 9.71989 22.5H7.23939C6.47256 20.5901 6.05624 18.5576 6.01039 16.5ZM19.4509 28.671C20.6657 27.1497 21.542 25.3868 22.0214 23.5H24.3109C23.2928 25.7039 21.5875 27.5183 19.4509 28.671ZM22.2814 22.5C22.7341 20.5314 22.9733 18.5198 22.9949 16.5H25.9914C25.9454 18.5576 25.5289 20.5901 24.7619 22.5H22.2814ZM26.9914 16.5H29.4884C29.4136 18.6026 28.845 20.658 27.8284 22.5H25.8284C26.5522 20.5801 26.9455 18.5513 26.9914 16.5ZM27.2194 8.5H25.4119C24.6472 6.79208 23.5412 5.25865 22.1619 3.994C24.2009 5.04519 25.9408 6.59531 27.2194 8.5ZM9.83939 3.994C8.46041 5.25881 7.3546 6.79221 6.58989 8.5H4.78239C6.06081 6.59533 7.80049 5.0452 9.83939 3.994ZM4.78239 23.5H6.58989C7.35474 25.2078 8.46073 26.7412 9.83989 28.006C7.80081 26.9549 6.06095 25.4047 4.78239 23.5ZM22.1619 28.006C23.5412 26.7414 24.6472 25.2079 25.4119 23.5H27.2194C25.9408 25.4047 24.2009 26.9548 22.1619 28.006Z" fill="black"/>
</g>
</svg>
