<svg width="262" height="262" viewBox="0 0 262 262" fill="none" xmlns="http://www.w3.org/2000/svg">
<path fill-rule="evenodd" clip-rule="evenodd" d="M56.1007 188.688C52.6008 186.627 49.6109 183.415 46.6318 180.458C39.8834 173.772 33.5939 166.429 29.7954 156.835C27.8579 151.948 25.4288 143.001 28.9942 138.27C31.7438 134.619 36.5948 137.246 39.694 138.698C40.9177 139.272 43.7474 141.002 44.7271 139.045C45.9836 136.544 44.9055 132.179 44.5741 129.557C43.5835 121.695 43.6855 110.938 51.989 109.191C58.1656 107.892 64.4115 112.721 69.4482 116.295C78.4618 122.692 89.0123 131.258 100.073 128.856C109.36 126.839 115.274 117.231 121.083 109.256C124.976 103.905 129.827 97.8591 136.302 98.4438C152.108 99.8707 147.497 129.859 159.971 136.072C167.728 139.934 177.248 136.651 185.406 137.997C189.302 138.64 193.578 140.048 195.88 144.176C200.672 152.763 193.986 164.085 198.91 172.211C202.799 178.632 217.13 177.393 213.885 188.236L56.1007 188.688Z" fill="#EEEEEE"/>
<path fill-rule="evenodd" clip-rule="evenodd" d="M180.388 84.7525L183.061 89.7563L186.062 72.1093L169.814 81.4984L174.284 81.9573L166.382 91.8576L124.179 75.4347C123.778 75.2788 123.349 75.204 122.919 75.2145C122.488 75.2251 122.064 75.3207 121.671 75.4961C121.277 75.6714 120.922 75.923 120.627 76.2361C120.331 76.5493 120.1 76.9179 119.948 77.3207L112.546 96.9394L103.541 97.3918C102.934 97.4226 102.347 97.6226 101.847 97.9692C101.347 98.3158 100.954 98.7952 100.712 99.3533L92.0752 119.33C91.3623 120.98 92.1222 122.899 93.7728 123.612C95.4236 124.326 97.345 123.564 98.0579 121.914L105.891 103.797L115 103.34C115.634 103.308 116.244 103.092 116.757 102.718C117.27 102.344 117.663 101.829 117.888 101.236L124.884 82.6996L166.252 98.798C166.9 99.0499 167.611 99.0883 168.282 98.9076C168.952 98.727 169.548 98.3367 169.981 97.7938L180.388 84.7525Z" fill="#EEEEEE"/>
<path fill-rule="evenodd" clip-rule="evenodd" d="M195.729 99.5137L192.451 94.2557C192.451 94.2557 163.306 108.984 157.369 123.69C150.986 139.502 157.809 154.343 172.597 156.812C187.393 159.282 204.569 148.458 210.957 132.636L207.666 127.376L200.127 130.828C196.321 140.255 186.087 146.704 177.272 145.233C168.46 143.762 164.396 134.919 168.199 125.498C169.359 122.625 171.116 120.028 173.248 117.848C178.11 112.875 184.925 110.07 191.054 111.093L195.729 99.5137Z" fill="#4B7686"/>
<mask id="mask0_1719_2492" style="mask-type:luminance" maskUnits="userSpaceOnUse" x="154" y="94" width="57" height="64">
<path d="M195.731 99.5137L192.453 94.2557C192.453 94.2557 163.308 108.984 157.371 123.69C150.988 139.502 157.811 154.343 172.599 156.812C187.395 159.282 204.571 148.458 210.959 132.636L207.668 127.376L200.129 130.828C196.323 140.255 186.089 146.704 177.274 145.233C168.462 143.762 164.398 134.919 168.201 125.498C169.361 122.625 171.118 120.028 173.25 117.848C178.112 112.875 184.927 110.07 191.056 111.093L195.731 99.5137Z" fill="white"/>
</mask>
<g mask="url(#mask0_1719_2492)">
<path fill-rule="evenodd" clip-rule="evenodd" d="M157.502 106.373L163.623 130.074L168.563 135.509L194.642 111.088L196.772 93.8998L182.598 86.732L157.502 106.373Z" fill="#85B1C2"/>
</g>
<path fill-rule="evenodd" clip-rule="evenodd" d="M192.438 94.2535C177.642 91.7836 160.466 102.607 154.079 118.43C147.695 134.242 154.519 149.083 169.307 151.552C184.103 154.021 201.279 143.198 207.666 127.375L196.836 125.568C193.03 134.995 182.797 141.444 173.981 139.972C165.17 138.502 161.105 129.659 164.908 120.238C168.714 110.811 178.948 104.361 187.764 105.833L192.438 94.2535Z" fill="#6993A4"/>
<mask id="mask1_1719_2492" style="mask-type:luminance" maskUnits="userSpaceOnUse" x="151" y="93" width="57" height="59">
<path d="M192.434 94.2535C177.638 91.7836 160.462 102.608 154.075 118.43C147.691 134.242 154.515 149.083 169.303 151.552C184.099 154.022 201.275 143.198 207.662 127.376L196.832 125.568C193.027 134.995 182.793 141.444 173.977 139.973C165.166 138.502 161.101 129.659 164.904 120.238C168.71 110.811 178.944 104.361 187.76 105.833L192.434 94.2535Z" fill="white"/>
</mask>
<g mask="url(#mask1_1719_2492)">
<path fill-rule="evenodd" clip-rule="evenodd" d="M144.716 135.509L165.151 129.847L192.006 108.821L196.766 93.8995L169.15 76.6585L144.716 135.509Z" fill="#A6D2E4"/>
</g>
<path fill-rule="evenodd" clip-rule="evenodd" d="M217.995 122.366C219.578 111.286 214.651 101.897 205.323 98.2129L188.438 115.899L190.614 119.818C192.126 120.416 194.047 123.262 193.789 125.059L217.995 122.366Z" fill="#001320"/>
<path fill-rule="evenodd" clip-rule="evenodd" d="M214.704 117.106C216.287 106.026 211.36 96.6367 202.032 92.9529L188.445 115.881C189.957 116.479 190.756 118.002 190.498 119.799L214.704 117.106Z" fill="#023341"/>
<path fill-rule="evenodd" clip-rule="evenodd" d="M199.408 189.197C199.568 187.129 200.258 185.071 200.912 183.118C202.657 177.92 205.17 173.252 209.624 169.899C211.788 168.272 214.723 166.747 217.529 167.131C218.858 167.313 220.341 168.08 220.274 169.617C220.16 172.363 216.866 174.508 214.853 175.843C209.935 179.107 200.803 182.642 199.408 189.197Z" fill="#6993A4"/>
<mask id="mask2_1719_2492" style="mask-type:luminance" maskUnits="userSpaceOnUse" x="199" y="167" width="22" height="23">
<path d="M199.406 189.197C199.566 187.129 200.256 185.071 200.91 183.118C202.655 177.92 205.168 173.252 209.622 169.899C211.786 168.272 214.721 166.747 217.527 167.131C218.856 167.313 220.339 168.08 220.272 169.616C220.158 172.363 216.864 174.508 214.851 175.843C209.933 179.107 200.802 182.642 199.406 189.197Z" fill="white"/>
</mask>
<g mask="url(#mask2_1719_2492)">
<path fill-rule="evenodd" clip-rule="evenodd" d="M219.067 165.719C219.443 166.657 219.284 167.769 219.088 168.728C218.914 169.594 218.672 170.473 218.227 171.241C216.612 174.015 213.215 175.18 210.21 175.637C208.853 175.843 206.676 175.981 205.612 174.865C204.881 174.098 205.409 173.359 205.453 172.497C205.464 172.269 205.283 172.215 205.091 172.273C204.051 172.577 203.161 174.058 202.603 174.88C200.93 177.36 199.862 180.362 199.421 183.313C199.265 184.352 199.033 185.804 199.703 186.723C200.543 187.878 202.455 186.995 203.429 186.539C203.711 186.405 203.994 186.263 204.272 186.119C204.595 185.952 204.917 185.778 205.232 185.604C205.728 185.333 206.213 185.043 206.695 184.754C209.638 182.994 223.705 175.684 225.558 172.226C227.492 168.616 222.408 166.943 219.067 165.719Z" fill="#477282"/>
</g>
<path fill-rule="evenodd" clip-rule="evenodd" d="M197.896 189.197C197.737 187.129 197.047 185.071 196.393 183.118C194.648 177.92 192.135 173.252 187.68 169.899C185.517 168.272 182.581 166.747 179.776 167.131C178.447 167.313 176.964 168.08 177.03 169.617C177.145 172.363 180.439 174.508 182.452 175.843C187.37 179.107 196.501 182.642 197.896 189.197Z" fill="#6993A4"/>
<mask id="mask3_1719_2492" style="mask-type:luminance" maskUnits="userSpaceOnUse" x="177" y="167" width="21" height="23">
<path d="M197.891 189.197C197.731 187.129 197.041 185.071 196.387 183.118C194.642 177.92 192.129 173.252 187.675 169.899C185.511 168.272 182.576 166.747 179.77 167.131C178.441 167.313 176.958 168.08 177.025 169.616C177.139 172.363 180.433 174.508 182.446 175.843C187.364 179.107 196.495 182.642 197.891 189.197Z" fill="white"/>
</mask>
<g mask="url(#mask3_1719_2492)">
<path fill-rule="evenodd" clip-rule="evenodd" d="M178.232 165.719C177.856 166.657 178.015 167.769 178.211 168.728C178.384 169.594 178.627 170.474 179.072 171.241C180.687 174.015 184.083 175.18 187.089 175.637C188.446 175.843 190.622 175.981 191.687 174.865C192.418 174.098 191.89 173.359 191.846 172.497C191.835 172.269 192.016 172.215 192.208 172.273C193.247 172.577 194.138 174.058 194.696 174.88C196.368 177.36 197.436 180.362 197.878 183.313C198.034 184.352 198.266 185.804 197.596 186.723C196.756 187.878 194.844 186.995 193.87 186.539C193.588 186.405 193.305 186.263 193.026 186.119C192.704 185.952 192.382 185.778 192.067 185.604C191.571 185.333 191.086 185.043 190.604 184.754C187.661 182.994 173.594 175.684 171.74 172.226C169.807 168.616 174.89 166.943 178.232 165.719Z" fill="#477282"/>
</g>
<path fill-rule="evenodd" clip-rule="evenodd" d="M200.066 188.173C199.962 184.28 199.718 180.091 200.166 176.073C200.594 172.269 201.641 168.617 204.147 165.583C206.862 162.293 210.732 160.229 214.198 157.829C218.056 155.156 221.434 152.096 222.733 147.051C223.129 145.53 223.277 143.949 223.125 142.386C222.961 140.719 222.409 139.111 221.67 137.608C221.314 136.884 220.434 136.586 219.711 136.943C218.987 137.3 218.687 138.178 219.047 138.902C219.631 140.09 220.082 141.356 220.214 142.673C220.334 143.896 220.21 145.131 219.903 146.32C218.791 150.618 215.821 153.147 212.531 155.425C208.849 157.976 204.775 160.224 201.889 163.72C196.28 170.519 196.92 179.997 197.14 188.251C197.164 189.06 197.835 189.698 198.643 189.675C199.45 189.655 200.086 188.982 200.066 188.173Z" fill="#6993A4"/>
<mask id="mask4_1719_2492" style="mask-type:luminance" maskUnits="userSpaceOnUse" x="197" y="136" width="27" height="54">
<path d="M200.07 188.173C199.966 184.28 199.722 180.091 200.17 176.073C200.597 172.269 201.645 168.617 204.151 165.583C206.866 162.293 210.736 160.229 214.202 157.829C218.059 155.156 221.438 152.096 222.737 147.051C223.133 145.53 223.281 143.949 223.129 142.386C222.965 140.719 222.413 139.111 221.673 137.608C221.318 136.884 220.438 136.586 219.715 136.943C218.991 137.3 218.691 138.178 219.051 138.902C219.635 140.09 220.086 141.356 220.218 142.673C220.338 143.896 220.214 145.131 219.906 146.32C218.795 150.618 215.825 153.147 212.535 155.425C208.853 157.976 204.779 160.224 201.893 163.72C196.284 170.519 196.924 179.997 197.143 188.251C197.167 189.06 197.839 189.698 198.647 189.675C199.454 189.655 200.09 188.982 200.07 188.173Z" fill="white"/>
</mask>
<g mask="url(#mask4_1719_2492)">
<path fill-rule="evenodd" clip-rule="evenodd" d="M215.217 134.874C217.437 136.692 218.288 147.869 219.892 150.206C220.272 150.765 220.857 152.954 221.622 153.08C222.213 153.175 222.72 152.316 222.971 151.917C223.865 150.506 224.358 148.794 224.785 147.197C225.898 143.08 226.511 138.12 225.26 133.971C225.051 133.27 224.768 132.564 224.375 131.945C222.647 129.246 219.496 130.605 217.602 132.295C216.727 133.078 215.953 133.959 215.217 134.874Z" fill="#477282"/>
</g>
<path d="M217.534 146.075C225.116 146.075 231.262 139.928 231.262 132.346C231.262 124.763 225.116 118.617 217.534 118.617C209.951 118.617 203.805 124.763 203.805 132.346C203.805 139.928 209.951 146.075 217.534 146.075Z" fill="#F29F05"/>
<mask id="mask5_1719_2492" style="mask-type:luminance" maskUnits="userSpaceOnUse" x="203" y="118" width="29" height="29">
<path d="M217.532 146.075C225.114 146.075 231.261 139.928 231.261 132.346C231.261 124.763 225.114 118.617 217.532 118.617C209.949 118.617 203.803 124.763 203.803 132.346C203.803 139.928 209.949 146.075 217.532 146.075Z" fill="white"/>
</mask>
<g mask="url(#mask5_1719_2492)">
<path fill-rule="evenodd" clip-rule="evenodd" d="M228.726 121.589C230.094 128.345 229.656 136.51 223.486 140.815C222.307 141.632 221.021 142.282 219.663 142.745C216.252 143.911 212.161 143.892 208.888 142.307C207.925 141.843 207.009 141.253 206.23 140.518C205.741 140.058 205.256 139.291 204.648 138.99C204.043 138.689 203.877 139.457 203.913 139.892C204.043 141.528 205.151 143.15 206.147 144.381C209.978 149.121 216.303 150.511 222.016 148.665C231.868 145.482 237.024 130.583 228.726 121.589Z" fill="#D98A00"/>
</g>
<path fill-rule="evenodd" clip-rule="evenodd" d="M227.017 112.02L227.559 115.51L231.051 116.052L227.559 116.594L227.017 120.084L226.474 116.594L222.986 116.052L226.474 115.51L227.017 112.02Z" fill="#F29F05"/>
<path fill-rule="evenodd" clip-rule="evenodd" d="M232.462 109.652L232.781 111.701L234.83 112.02L232.781 112.338L232.462 114.387L232.143 112.338L230.096 112.02L232.143 111.701L232.462 109.652Z" fill="#F29F05"/>
<path fill-rule="evenodd" clip-rule="evenodd" d="M232.462 118.557L232.781 120.605L234.83 120.924L232.781 121.242L232.462 123.291L232.143 121.242L230.096 120.924L232.143 120.605L232.462 118.557Z" fill="#F29F05"/>
<path d="M220.811 134.232C220.558 133.794 220.235 133.514 219.841 133.396C219.448 133.276 218.897 133.276 218.186 133.393C217.476 133.51 216.847 133.583 216.3 133.61C215.751 133.638 215.244 133.598 214.78 133.492C214.318 133.387 213.883 133.188 213.502 132.908C213.113 132.626 212.768 132.222 212.465 131.698C211.943 130.793 211.804 129.885 212.049 128.973C212.293 128.061 212.866 127.282 213.769 126.632L212.777 124.914L214.061 124.173L215.066 125.915C216.092 125.501 217.061 125.468 217.974 125.815C218.887 126.161 219.646 126.856 220.248 127.9L217.928 129.239C217.558 128.597 217.147 128.194 216.699 128.028C216.25 127.862 215.804 127.908 215.36 128.164C214.921 128.417 214.653 128.738 214.556 129.126C214.458 129.514 214.537 129.927 214.79 130.366C215.025 130.773 215.33 131.032 215.709 131.141C216.086 131.252 216.669 131.251 217.457 131.138C218.245 131.026 218.91 130.965 219.454 130.954C219.997 130.944 220.493 131 220.943 131.122C221.384 131.241 221.797 131.446 222.158 131.726C222.52 132.006 222.841 132.39 223.122 132.877C223.647 133.787 223.789 134.689 223.55 135.584C223.31 136.479 222.721 137.264 221.786 137.94L222.708 139.538L221.432 140.275L220.514 138.685C219.348 139.201 218.274 139.302 217.29 138.989C216.307 138.676 215.498 137.971 214.865 136.874L217.185 135.534C217.552 136.171 217.986 136.572 218.484 136.737C218.983 136.902 219.516 136.821 220.083 136.493C220.554 136.222 220.853 135.883 220.984 135.476C221.113 135.07 221.055 134.655 220.811 134.232Z" fill="white"/>
<path fill-rule="evenodd" clip-rule="evenodd" d="M91.3697 111.622C91.3697 111.622 82.4721 120.529 84.5568 137.251C85.863 147.714 94.2754 180.492 102.805 177.143C111.334 173.794 135.729 117.153 135.729 117.153C135.729 117.153 139.072 117.051 138.797 112.495C138.649 110.007 135.921 109.114 135.921 109.114C135.921 109.114 138.326 105.042 139.055 103.851C140.787 101.019 137.25 101.698 135.481 100.968C135.228 100.862 131.048 103.933 129.65 108.706C129.061 110.717 128.927 113.121 128.927 113.121L107.643 145.335L91.3697 111.622Z" fill="#FAD8BA"/>
<mask id="mask6_1719_2492" style="mask-type:luminance" maskUnits="userSpaceOnUse" x="84" y="100" width="56" height="78">
<path d="M91.3697 111.622C91.3697 111.622 82.4721 120.529 84.5568 137.251C85.863 147.714 94.2754 180.492 102.805 177.143C111.334 173.794 135.729 117.153 135.729 117.153C135.729 117.153 139.072 117.051 138.797 112.495C138.649 110.007 135.921 109.114 135.921 109.114C135.921 109.114 138.326 105.042 139.055 103.851C140.787 101.019 137.25 101.698 135.481 100.968C135.228 100.862 131.048 103.933 129.65 108.706C129.061 110.717 128.927 113.121 128.927 113.121L107.643 145.335L91.3697 111.622Z" fill="white"/>
</mask>
<g mask="url(#mask6_1719_2492)">
<path fill-rule="evenodd" clip-rule="evenodd" d="M84.0698 164.451C85.005 161.118 89.0307 157.524 92.4981 157.355C94.843 157.241 97.8164 158.328 100.043 157.251C101.259 156.663 101.517 155.202 101.516 153.985C101.51 151.921 101.36 149.856 102.179 147.904C102.682 146.71 103.419 145.755 104.54 145.085C105.805 144.327 107.652 143.817 107.831 142.105C108.109 139.46 107.068 136.388 106.34 133.897C104.383 127.219 101.695 119.844 96.6415 114.861C95.7145 113.949 94.6811 113.098 93.5251 112.489C86.6124 108.839 81.7821 116.219 80.214 121.977C79.3626 125.107 78.9759 128.371 78.9113 131.609C78.8077 136.641 82.9324 159.557 84.0698 164.451Z" fill="#0190F2"/>
<path fill-rule="evenodd" clip-rule="evenodd" d="M141.435 109.717C140.844 110.77 139.324 111.589 138.462 112.395C136.668 114.073 134.984 115.866 133.422 117.761C129.497 122.537 126.916 128.089 123.614 133.266C122.332 135.276 120.891 137.198 119.711 139.272C119.167 140.231 118.505 141.345 118.479 142.481C118.396 146.022 123.664 143.78 125.073 142.965C125.458 142.739 125.836 142.5 126.206 142.248C126.832 141.826 127.444 141.38 128.045 140.925C134.888 135.776 137.915 117.436 141.435 109.717Z" fill="#D7B699"/>
</g>
<path fill-rule="evenodd" clip-rule="evenodd" d="M157.924 93.4276C158.177 92.0507 156.818 89.397 155.541 89.6504C151.614 90.4299 144.214 93.7463 140.287 94.5258C139.01 94.7792 137.771 96.101 137.518 97.478C136.517 102.937 132.932 114.942 131.932 120.401C131.679 121.778 133.719 123.64 134.995 123.386L150.779 120.253C152.056 120 153.295 118.678 153.547 117.301L157.924 93.4276Z" fill="#023341"/>
<path fill-rule="evenodd" clip-rule="evenodd" d="M156.632 91.5897C156.885 90.2127 156.055 89.3015 154.778 89.555L138.995 92.6878C137.718 92.9413 136.479 94.263 136.226 95.64L131.849 119.514C131.597 120.89 132.427 121.802 133.703 121.548L149.487 118.415C150.764 118.162 152.003 116.84 152.255 115.463L156.632 91.5897Z" fill="#1B3F4E"/>
<path fill-rule="evenodd" clip-rule="evenodd" d="M154.597 93.9293C154.821 92.7059 154.085 91.8964 152.95 92.1216L139.977 94.6967C138.844 94.9216 137.742 96.0959 137.518 97.3192L137.192 99.0947C136.968 100.318 137.706 101.127 138.839 100.902L151.813 98.3272C152.947 98.102 154.047 96.928 154.271 95.7047L154.597 93.9293Z" fill="white"/>
<path fill-rule="evenodd" clip-rule="evenodd" d="M139.291 104.728C139.427 103.987 138.98 103.497 138.294 103.633L137.449 103.801C136.764 103.937 136.097 104.648 135.961 105.389L135.645 107.113C135.509 107.853 135.956 108.343 136.642 108.207L137.486 108.04C138.172 107.903 138.839 107.193 138.975 106.452L139.291 104.728Z" fill="white"/>
<path fill-rule="evenodd" clip-rule="evenodd" d="M138.201 110.665C138.337 109.925 137.89 109.435 137.204 109.571L136.36 109.738C135.674 109.874 135.007 110.585 134.871 111.326L134.555 113.05C134.419 113.791 134.866 114.281 135.552 114.145L136.397 113.977C137.082 113.841 137.749 113.13 137.885 112.389L138.201 110.665Z" fill="white"/>
<path fill-rule="evenodd" clip-rule="evenodd" d="M137.111 116.603C137.247 115.862 136.8 115.372 136.115 115.508L135.27 115.676C134.584 115.812 133.917 116.523 133.781 117.264L133.465 118.988C133.33 119.728 133.776 120.218 134.462 120.082L135.307 119.914C135.992 119.778 136.659 119.067 136.795 118.327L137.111 116.603Z" fill="white"/>
<path fill-rule="evenodd" clip-rule="evenodd" d="M144.369 103.72C144.505 102.979 144.058 102.489 143.372 102.626L142.528 102.793C141.842 102.929 141.175 103.64 141.039 104.381L140.723 106.105C140.587 106.846 141.034 107.336 141.72 107.199L142.565 107.032C143.25 106.896 143.917 106.185 144.053 105.444L144.369 103.72Z" fill="white"/>
<path fill-rule="evenodd" clip-rule="evenodd" d="M143.279 109.657C143.415 108.917 142.968 108.427 142.283 108.563L141.438 108.731C140.752 108.867 140.085 109.578 139.949 110.318L139.633 112.043C139.498 112.783 139.944 113.273 140.63 113.137L141.475 112.969C142.16 112.833 142.827 112.122 142.963 111.382L143.279 109.657Z" fill="white"/>
<path fill-rule="evenodd" clip-rule="evenodd" d="M142.189 115.595C142.325 114.854 141.878 114.364 141.193 114.5L140.348 114.668C139.662 114.804 138.995 115.515 138.86 116.256L138.543 117.98C138.408 118.72 138.854 119.21 139.54 119.074L140.385 118.907C141.07 118.771 141.737 118.06 141.873 117.319L142.189 115.595Z" fill="white"/>
<path fill-rule="evenodd" clip-rule="evenodd" d="M149.445 102.712C149.581 101.972 149.134 101.482 148.449 101.618L147.604 101.785C146.918 101.922 146.251 102.632 146.115 103.373L145.799 105.097C145.664 105.838 146.11 106.328 146.796 106.192L147.641 106.024C148.326 105.888 148.993 105.177 149.129 104.437L149.445 102.712Z" fill="white"/>
<path fill-rule="evenodd" clip-rule="evenodd" d="M153.623 101.883C153.759 101.143 153.312 100.653 152.626 100.789L151.781 100.957C151.096 101.093 150.429 101.804 150.293 102.544L149.977 104.269C149.841 105.009 150.288 105.499 150.974 105.363L151.818 105.195C152.504 105.059 153.171 104.348 153.307 103.608L153.623 101.883Z" fill="white"/>
<path fill-rule="evenodd" clip-rule="evenodd" d="M148.357 108.65C148.493 107.909 148.046 107.419 147.361 107.555L146.516 107.723C145.83 107.859 145.163 108.57 145.028 109.311L144.711 111.035C144.576 111.775 145.022 112.265 145.708 112.129L146.553 111.961C147.238 111.825 147.905 111.114 148.041 110.374L148.357 108.65Z" fill="white"/>
<path fill-rule="evenodd" clip-rule="evenodd" d="M147.267 114.587C147.403 113.846 146.956 113.356 146.271 113.493L145.426 113.66C144.74 113.796 144.074 114.507 143.938 115.248L143.622 116.972C143.486 117.713 143.933 118.203 144.618 118.066L145.463 117.899C146.149 117.763 146.815 117.052 146.951 116.311L147.267 114.587Z" fill="white"/>
<path fill-rule="evenodd" clip-rule="evenodd" d="M152.212 107.884C152.347 107.144 151.901 106.654 151.214 106.79L151.015 106.829C150.328 106.966 149.661 107.677 149.526 108.417L148.121 116.079C147.985 116.82 148.431 117.31 149.119 117.173L149.317 117.134C150.005 116.997 150.671 116.287 150.807 115.546L152.212 107.884Z" fill="white"/>
<path fill-rule="evenodd" clip-rule="evenodd" d="M138.378 105.22C136.408 105.718 131.179 108.217 129.742 109.247C129.157 109.665 129.058 111.255 129.758 111.4C130.877 111.63 134.743 111.098 136.45 110.63C141.592 109.217 140.548 104.67 138.378 105.22Z" fill="#FAD8BA"/>
<mask id="mask7_1719_2492" style="mask-type:luminance" maskUnits="userSpaceOnUse" x="129" y="105" width="12" height="7">
<path d="M138.378 105.22C136.408 105.718 131.179 108.217 129.742 109.247C129.157 109.665 129.058 111.255 129.758 111.4C130.877 111.63 134.743 111.098 136.45 110.63C141.592 109.217 140.548 104.67 138.378 105.22Z" fill="white"/>
</mask>
<g mask="url(#mask7_1719_2492)">
<path fill-rule="evenodd" clip-rule="evenodd" d="M139.262 104.398C139.433 105.601 138.864 107.054 138.212 108.068C137.054 109.869 133.303 111.22 133.303 111.22C133.303 111.22 134.983 111.952 135.837 111.723C138.455 111.023 143.488 106.762 139.262 104.398Z" fill="#D7B699"/>
</g>
<path fill-rule="evenodd" clip-rule="evenodd" d="M91.4826 111.956C86.1183 105.657 71.0541 107.831 66.8405 114.953C60.692 125.344 54.5918 174.3 54.5918 174.3L101.141 155.218C101.141 155.218 97.2003 118.667 91.4826 111.956Z" fill="#0190F2"/>
<path fill-rule="evenodd" clip-rule="evenodd" d="M59.3926 123.486C60.3521 127.638 66.138 121.466 68.0135 125.256C70.5733 130.419 70.1171 141.213 74.5851 144.997C77.2897 147.288 81.9133 145.174 85.458 145.453C86.5912 145.542 85.8707 148.838 86.1025 150.409C86.3306 151.955 84.4659 153.208 83.3833 153.923C79.8423 156.262 75.635 157.541 71.3807 157.023C60.6164 155.713 63.9619 132.828 59.3926 123.486Z" fill="#0190F2"/>
<path fill-rule="evenodd" clip-rule="evenodd" d="M186.577 174.084C174.496 171.148 151.057 181.076 143.333 182.814C137.592 184.11 141.976 188.944 141.976 188.944H186.421C186.421 188.944 191.992 175.399 186.577 174.084Z" fill="#D68700"/>
<mask id="mask8_1719_2492" style="mask-type:luminance" maskUnits="userSpaceOnUse" x="140" y="173" width="49" height="16">
<path d="M186.571 174.084C174.49 171.148 151.051 181.076 143.327 182.814C137.586 184.11 141.971 188.944 141.971 188.944H186.415C186.415 188.944 191.986 175.399 186.571 174.084Z" fill="white"/>
</mask>
<g mask="url(#mask8_1719_2492)">
<path fill-rule="evenodd" clip-rule="evenodd" d="M145.652 181.374C146.699 185.589 157.264 192.642 180.143 183.721C183.778 182.301 185.979 179.618 188.441 176.566C190.114 174.484 189.857 182.797 189.198 184.524C187.413 189.181 182.862 191.958 178.474 193.804C169.078 197.762 157.289 198.374 147.39 196.187C143.027 195.22 138.078 193.616 135.029 190.144C130.742 185.256 133.508 179.075 137.936 175.426C145.493 169.198 136.141 181.302 145.652 181.374Z" fill="#975300"/>
</g>
<path fill-rule="evenodd" clip-rule="evenodd" d="M173.83 173.543C173.83 173.543 138.578 135.964 123.308 133.044C108.038 130.124 90.8045 148.665 82.2166 156.024C60.0975 174.977 70.9963 188.682 84.9774 189.035C107.553 189.604 124.308 162.189 124.308 162.189L131.902 185.178C143.717 187.267 165.566 180.463 173.83 173.543Z" fill="#03222F"/>
<path fill-rule="evenodd" clip-rule="evenodd" d="M171.473 174.185C159.392 171.249 135.954 181.177 128.229 182.915C122.488 184.211 126.873 189.045 126.873 189.045H171.317C171.317 189.045 176.888 175.5 171.473 174.185Z" fill="#F29F05"/>
<mask id="mask9_1719_2492" style="mask-type:luminance" maskUnits="userSpaceOnUse" x="125" y="173" width="49" height="17">
<path d="M171.475 174.185C159.394 171.249 135.956 181.177 128.231 182.915C122.49 184.211 126.875 189.045 126.875 189.045H171.319C171.319 189.045 176.89 175.5 171.475 174.185Z" fill="white"/>
</mask>
<g mask="url(#mask9_1719_2492)">
<path fill-rule="evenodd" clip-rule="evenodd" d="M133.658 180.376C134.704 184.59 145.27 191.643 168.149 182.722C171.784 181.302 173.985 178.62 176.447 175.567C178.12 173.485 177.863 181.798 177.204 183.526C175.419 188.182 170.868 190.959 166.479 192.805C157.084 196.763 145.295 197.375 135.396 195.188C131.033 194.221 126.084 192.617 123.035 189.145C118.748 184.257 121.514 178.076 125.942 174.427C133.499 168.199 124.146 180.303 133.658 180.376Z" fill="#B16800"/>
</g>
<path fill-rule="evenodd" clip-rule="evenodd" d="M158.722 173.644C158.722 173.644 123.471 136.064 108.201 133.144C92.9308 130.225 75.6971 148.766 67.1092 156.125C44.9901 175.078 55.8889 188.782 69.87 189.136C92.4454 189.705 109.2 162.29 109.2 162.29L116.795 185.279C128.61 187.368 150.459 180.564 158.722 173.644Z" fill="#023746"/>
<mask id="mask10_1719_2492" style="mask-type:luminance" maskUnits="userSpaceOnUse" x="54" y="132" width="105" height="58">
<path d="M158.724 173.644C158.724 173.644 123.473 136.064 108.203 133.144C92.9327 130.225 75.699 148.766 67.1111 156.125C44.9921 175.078 55.8909 188.782 69.872 189.136C92.4474 189.705 109.202 162.29 109.202 162.29L116.797 185.279C128.612 187.368 150.461 180.564 158.724 173.644Z" fill="white"/>
</mask>
<g mask="url(#mask10_1719_2492)">
<path fill-rule="evenodd" clip-rule="evenodd" d="M44.5531 168.096C42.9999 172.688 72.2586 150.504 71.1507 155.268C69.6119 161.876 68.8262 175.617 78.8374 175.555C80.0576 175.548 81.285 175.341 82.4544 174.987C90.2389 172.619 98.6244 167.416 103.896 161.211C105.652 159.146 107.046 156.816 107.911 154.24C108.245 153.249 108.48 152.233 108.733 151.22C108.748 151.155 108.936 150.276 109.095 150.356C109.501 150.558 109.454 152.127 109.505 152.494C109.733 154.211 110.073 156.022 111.004 157.514C113.241 161.113 118.002 161.752 120.32 165.372C123.024 169.592 121.341 176.761 126.442 179.299C133.035 182.579 144.513 178.821 150.646 175.794C152.536 174.86 154.354 173.766 156.088 172.564C156.776 172.083 157.754 171.098 158.673 171.225C160.922 171.525 160.469 177.021 160.14 178.31C159.249 181.812 156.642 184.498 153.862 186.631C148.449 190.78 141.881 193.278 135.309 194.908C120.761 198.514 105.308 199.039 90.4018 198.184C81.5456 197.674 72.541 196.837 63.9709 194.444C54.8141 191.884 44.4445 186.363 43.6625 175.729C43.4742 173.151 43.9231 170.584 44.5531 168.096Z" fill="#021725"/>
</g>
<path fill-rule="evenodd" clip-rule="evenodd" d="M68.983 112.495C68.983 112.495 57.2678 117.106 52.4982 133.268C49.5156 143.381 43.5535 176.46 53.2889 177.128C63.0274 177.797 110.917 137.286 110.917 137.286C110.917 137.286 114.147 138.274 116.175 134.185C117.126 132.271 115.609 129.212 115.609 129.212C115.609 129.212 118.135 127.221 119.28 126.42C121.999 124.516 119.887 122.359 118.196 123.261C116.792 124.012 110.023 128.833 110.023 128.833L70.4325 149.902L68.983 112.495Z" fill="#FAD8BA"/>
<mask id="mask11_1719_2492" style="mask-type:luminance" maskUnits="userSpaceOnUse" x="47" y="112" width="74" height="66">
<path d="M68.985 112.495C68.985 112.495 57.2698 117.106 52.5001 133.268C49.5175 143.381 43.5555 176.46 53.2908 177.128C63.0294 177.797 110.919 137.286 110.919 137.286C110.919 137.286 114.149 138.274 116.177 134.185C117.128 132.271 115.611 129.212 115.611 129.212C115.611 129.212 118.137 127.221 119.281 126.42C122.001 124.516 119.889 122.359 118.198 123.261C116.794 124.012 110.025 128.833 110.025 128.833L70.4345 149.902L68.985 112.495Z" fill="white"/>
</mask>
<g mask="url(#mask11_1719_2492)">
<path fill-rule="evenodd" clip-rule="evenodd" d="M61.2803 144.333C57.8841 149.674 54.8644 156.374 54.7051 162.762C54.6146 166.315 55.7696 170.037 59.9587 169.468C64.6692 168.828 69.1987 165.799 73.1271 163.324C82.8957 157.169 92.2117 150.119 101.39 143.119C103.899 141.204 106.405 139.274 108.606 137C109.012 136.582 110.254 134.624 110.916 134.621C111.398 134.618 111.713 136.337 112.317 136.563C113.885 137.146 115.837 135.163 116.452 133.926C116.641 133.542 116.898 132.477 117.292 132.274C117.922 131.95 118.241 133.498 118.292 133.798C119.457 141.06 114.566 148.715 110.261 154.005C102.542 163.495 91.9836 171.091 81.0311 176.402C75.553 179.063 69.807 181.308 63.793 182.398C54.973 183.991 43.9698 183.082 40.0377 173.632C39.415 172.137 39.0456 170.537 38.8972 168.925C38.756 167.405 41.8517 154.224 47.938 147.692C52.8513 142.42 60.9617 143.582 61.2332 142.387M118.266 122.785C118.914 122.775 119.689 123.212 119.881 123.871C119.975 124.188 119.743 124.615 119.591 124.875C118.961 125.949 117.68 126.575 116.669 127.233C115.953 127.699 115.29 128.241 114.573 128.708C114.338 128.861 114.095 129.009 113.849 129.147C113.766 129.194 113.679 129.241 113.596 129.288C113.592 129.29 113.469 129.359 113.487 129.368C113.563 129.414 113.885 129.293 113.972 129.279C114.425 129.203 114.874 129.162 115.33 129.141C115.851 129.117 116.42 129.14 116.923 128.998C117.506 128.833 118.027 128.482 118.512 128.131C119.342 127.53 120.12 126.83 120.725 125.998C121.394 125.072 122.035 123.762 121.246 122.714C121.054 122.46 118.523 122.97 118.266 122.785Z" fill="#D7B699"/>
<path fill-rule="evenodd" clip-rule="evenodd" d="M41.1797 158.007C43.3684 155.325 48.4948 153.639 51.741 154.869C53.9362 155.701 56.2278 157.886 58.6994 157.788C60.0493 157.734 60.8689 156.498 61.3542 155.382C62.1738 153.487 62.8616 151.535 64.3915 150.073C65.33 149.179 66.3874 148.598 67.6827 148.431C69.145 148.242 71.0413 148.512 71.8898 147.015C73.2012 144.7 73.4744 141.469 73.8022 138.895C74.6764 131.99 75.1585 124.156 72.5166 117.569C72.0313 116.362 71.4238 115.169 70.6074 114.149C65.7285 108.042 58.3523 112.877 54.6144 117.529C52.5831 120.059 50.9247 122.896 49.5715 125.839C47.4663 130.41 42.0925 153.065 41.1797 158.007Z" fill="#0190F2"/>
</g>
<path fill-rule="evenodd" clip-rule="evenodd" d="M80.3465 102.642L73.9023 102.736C74.7958 105.158 74.9726 107.521 74.0534 109.793C85.91 142.2 85.9872 133.121 81.0086 108.811C79.9223 107.265 79.5623 105.291 80.3465 102.642Z" fill="#FAD8BA"/>
<mask id="mask12_1719_2492" style="mask-type:luminance" maskUnits="userSpaceOnUse" x="73" y="102" width="12" height="29">
<path d="M80.3504 102.642L73.9062 102.736C74.7998 105.158 74.9766 107.521 74.0573 109.793C85.9139 142.2 85.9911 133.121 81.0125 108.811C79.9262 107.265 79.5662 105.291 80.3504 102.642Z" fill="white"/>
</mask>
<g mask="url(#mask12_1719_2492)">
<path fill-rule="evenodd" clip-rule="evenodd" d="M81.0462 106.447C79.8695 108.154 77.8492 108.848 75.8506 108.43C74.6992 108.191 73.6021 107.465 73.3559 106.238C73.1061 104.989 73.8773 103.998 74.9236 103.402C76.5566 102.474 79.569 105.253 81.0462 106.447Z" fill="#D7B699"/>
<path fill-rule="evenodd" clip-rule="evenodd" d="M82.1375 108.993C82.5304 112.002 82.9634 115.054 82.761 118.092C82.656 119.67 84.7357 127.006 81.4463 127.835C78.5816 128.555 78.0776 129.475 79.9818 131.173C81.8526 132.839 84.3733 132.773 85.9012 130.699C86.8017 129.479 87.2669 127.933 87.5403 126.459C88.141 123.215 82.8207 112.194 82.1375 108.993Z" fill="#D7B699"/>
</g>
<path fill-rule="evenodd" clip-rule="evenodd" d="M77.311 94.9086C79.8029 94.9086 81.8258 97.5826 81.8258 100.876C81.8258 104.17 81.3934 107.027 78.9041 107.027C76.4122 107.027 72.7988 104.17 72.7988 100.876C72.7988 97.5826 74.8217 94.9086 77.311 94.9086Z" fill="#FAD8BA"/>
<path fill-rule="evenodd" clip-rule="evenodd" d="M71.8378 95.6489C71.8249 95.485 71.8184 95.3191 71.8184 95.1517C71.8184 91.8348 74.5118 89.1421 77.8255 89.1421C80.2425 89.1421 82.3284 90.5723 83.2829 92.6322C84.0968 93.0418 84.7438 93.7203 85.1143 94.5527C85.4848 95.385 85.5559 96.3199 85.3156 97.1987C85.0753 98.0776 84.5383 98.8462 83.7958 99.3742C83.0533 99.9022 82.151 100.157 81.242 100.095C80.2532 100.781 79.0803 101.153 77.8769 101.161C77.8898 101.325 77.8962 101.491 77.8962 101.658C77.8962 104.975 75.206 107.668 71.8891 107.668C68.5723 107.668 65.8789 104.975 65.8789 101.658C65.8789 98.3583 68.5434 95.6762 71.8378 95.6489Z" fill="#03222F"/>
<path fill-rule="evenodd" clip-rule="evenodd" d="M61.2402 188.599H227.015V189.688H61.2402V188.599Z" fill="#03222F"/>
<path fill-rule="evenodd" clip-rule="evenodd" d="M37.9434 188.736H55.7051V189.893H37.9434V188.736Z" fill="#03222F"/>
</svg>
